<?xml version="1.0" encoding="UTF-8" standalone="no"?>
<!-- Created with Inkscape (http://www.inkscape.org/) -->

<svg
   version="1.1"
   id="svg1"
   width="1024"
   height="1024"
   viewBox="0 0 1024 1024"
   sodipodi:docname="logo.svg"
   inkscape:version="1.3.2 (091e20e, 2023-11-25, custom)"
   xmlns:inkscape="http://www.inkscape.org/namespaces/inkscape"
   xmlns:sodipodi="http://sodipodi.sourceforge.net/DTD/sodipodi-0.dtd"
   xmlns="http://www.w3.org/2000/svg"
   xmlns:svg="http://www.w3.org/2000/svg">
  <defs
     id="defs1" />
  <sodipodi:namedview
     id="namedview1"
     pagecolor="#ffffff"
     bordercolor="#000000"
     borderopacity="0.25"
     inkscape:showpageshadow="2"
     inkscape:pageopacity="0.0"
     inkscape:pagecheckerboard="0"
     inkscape:deskcolor="#d1d1d1"
     inkscape:zoom="1"
     inkscape:cx="461.5"
     inkscape:cy="506.5"
     inkscape:window-width="1920"
     inkscape:window-height="1017"
     inkscape:window-x="-8"
     inkscape:window-y="-8"
     inkscape:window-maximized="1"
     inkscape:current-layer="g1" />
  <g
     inkscape:groupmode="layer"
     inkscape:label="Image"
     id="g1">
    <g
       id="g6599">
      <path
         style="opacity:1;fill:#1d0045;fill-opacity:1;stroke:none;stroke-opacity:0.74098361;fill-rule:evenodd"
         d="m 672.63084,462.15151 c 26.58533,63.85413 6.98718,138.8324 -46,183.56091 -33.89557,28.61261 -75.25018,46.09424 -112,70.44294 -39.71106,26.3106 -71.36887,61.80719 -85.28009,107.99615 -4.61536,15.32428 -6.71991,30.02942 -6.71991,46 9.56055,-4.88788 15.01556,-20.87927 22.16974,-29 16.47284,-18.69836 35.48221,-33.79858 56.83026,-46.60034 53.25653,-31.93604 118.37482,-38.03241 168,-76.91046 68.19696,-53.42786 70.99854,-155.57697 26.69214,-224.4892 -6.79169,-10.56348 -14.25055,-22.62067 -23.69214,-31"
         id="path6599"
         inkscape:label="chest2" />
      <path
         style="opacity:1;fill:#272727;fill-opacity:1;stroke:none;stroke-opacity:1;fill-rule:evenodd"
         d="m 667.63084,355.15151 c -7.47119,21.9054 -31.89075,33.50305 -53,38.34875 -6.80133,1.56128 -26.09595,2.13642 -30.21216,8.08106 -2.84003,4.10156 2.50336,13.44366 3.87885,17.57019 3.91882,11.75665 6.34967,25.63312 3.81866,38 -2.92059,14.27026 -10.1535,28.29681 -21.48535,37.67126 -4.79218,3.96436 -14.52966,6.06025 -17.97223,10.96686 -4.13217,5.88953 -2.66217,21.83112 -4.77392,29.36188 -5.1702,18.43762 -16.81934,34.6134 -31.25385,46.86572 -21.01633,17.83911 -47.67535,29.45337 -73,39.68134 -17.29022,6.98309 -35.72903,12.15948 -51,23.1983 -20.2684,14.65131 -33.14688,35.72919 -40.65588,59.25464 -4.03086,12.62854 -5.34412,24.83325 -5.34412,38 6.09207,-4.02484 8.85199,-15.69275 12.60419,-22 7.64569,-12.85205 17.45425,-23.77026 28.39581,-33.90973 33.75867,-31.28406 86.23489,-48.76227 130,-60.09027 -6.69711,7.8703 -18.91751,12.57007 -28,17.25848 -14.35074,7.4079 -28.32864,15.58881 -42,24.1659 -56.92892,35.71594 -114.57388,109.74884 -75.42053,178.57562 5.44595,9.5733 12.34247,20.55188 21.42053,27 0.008,-70.34961 54.25684,-136.28967 110,-172.92126 30.57025,-20.0893 65.15228,-34.98926 94,-57.58954 47.966,-37.57819 77.19641,-94.32111 65.19598,-155.4892 -5.00329,-25.50269 -18.69409,-44.05817 -31.19598,-66 47.94666,12.08765 78.08063,60.27228 92.33026,104 4.37421,13.4231 3.58515,33.19165 10.66974,45 28.41577,-48.68555 20.73645,-109.07019 -19.00079,-149 -9.52393,-9.57007 -19.61652,-20.14484 -32.99921,-24 6.89899,-8.78546 23.31122,-12.56067 34,-14 -2.66986,-5.22528 -8.20422,-7.60901 -13,-10.69214 -11.00195,-7.07294 -22.76965,-15.52478 -36,-17.30786"
         id="path6597"
         inkscape:label="chest1" />
      <path
         style="opacity:1;fill:#1d0045;fill-opacity:1;stroke:none;stroke-opacity:1;fill-rule:evenodd"
         d="m 587.63084,278.15151 c -6.7453,9.61328 -16.14795,17.26178 -25,24.86963 -4.46686,3.83905 -10.49323,7.53332 -12.90973,13.13422 -1.88901,4.37829 1.1012,18.01403 7.71607,17.07482 4.12274,-0.58538 9.36041,-10.15905 12.20831,-13.07867 5.23199,-5.36371 14.33142,-10.62695 17.99695,-17.0401 3.92621,-6.8692 2.93127,-17.49945 1.9884,-24.9599 h -2"
         id="path6595"
         inkscape:label="backear" />
      <path
         style="opacity:1;fill:#272727;fill-opacity:1;stroke:none;stroke-opacity:1;fill-rule:evenodd"
         d="m 416.63084,230.15151 c 0,14.70496 0.28574,27.61658 7.26233,41 3.02142,5.79608 7.93655,10.2749 10.96991,16 2.25098,4.24841 4.21847,13.30835 -2.28702,14.95679 -6.92438,1.75457 -14.64697,-6.62049 -19.94522,-9.83795 -6.19577,-3.76246 -12.96124,-4.11805 -20,-4.11884 7.80972,18.75293 24.60394,27.73224 37.91049,42 12.46961,13.37036 18.78397,28.28632 25.08951,45 5.96472,-4.15222 22.65796,-13.79688 24.50308,-21.01465 0.91513,-3.57977 -3.19803,-6.51477 -5.11343,-8.98535 -3.79932,-4.90063 -6.41443,-11.15912 -8.3858,-17 -4.49253,-13.31061 -4.69053,-27.67194 0.0864,-41 3.50424,-9.77722 13.24551,-19.76459 7.90973,-30 -5.02002,6.0517 -7.64752,12.83667 -16,15.2099 -20.84428,5.92255 -37.79255,-25.83093 -39.99998,-42.2099 h -2"
         id="path6594"
         inkscape:label="backantler" />
      <path
         style="opacity:1;fill:#272727;fill-opacity:1;stroke:none;stroke-opacity:1;fill-rule:evenodd"
         d="m 460.63084,179.15151 11.12732,21 9.35187,26.99615 20.52081,18.00385 c 5.89871,-14.09326 31.01202,-30.89575 24,-46 -3.36957,3.86011 -5.80179,8.30396 -10.00385,11.44214 -8.51605,6.35998 -16.16369,2.20709 -21.84027,-5.44293 -8.74286,-11.78229 -16.84771,-25.25226 -33.15588,-25.99921"
         id="path6593"
         inkscape:label="backantler2" />
      <path
         id="path6575"
         style="opacity:1;fill:#1d0045;fill-opacity:1;stroke:none;stroke-opacity:1;fill-rule:evenodd"
         inkscape:label="head"
         d="M 721.56445 149.18945 C 715.62801 149.86962 710.19653 167.56807 706.61523 172.15234 C 695.80429 185.991 667.40664 203.97167 648.63086 198.57812 C 628.70915 192.85542 647.05178 160.41095 626.63086 153.15234 C 626.63086 179.76515 618.73853 207.03876 589.63086 215.29102 C 579.42165 218.18541 569.05284 220.51835 560.80469 212.05664 C 544.56478 195.39628 551.2121 172.441 551.63086 152.15234 C 541.99444 154.0979 539.69537 163.96071 536.96484 172.15234 C 534.27501 180.22192 530.55991 189.47939 531.26367 198.15234 C 532.45261 212.80418 540.9818 226.22806 540.61523 241.15234 C 540.31121 253.52952 527.29295 270.28746 513.63086 266.36133 C 504.8641 263.84198 503.0746 256.64008 498.09766 250.15234 C 493.19596 243.76278 485.33516 237.60724 477.63086 235.15234 C 477.74176 275.41581 508.90051 304.12801 505.53711 345.15234 C 503.2864 372.60469 467.61398 381.78757 449.63086 396.90625 C 437.27486 407.2941 441.61912 420.37931 434.26758 433.15234 C 421.59972 455.16225 390.22333 470.19502 365.63086 472.15234 C 366.09103 482.70597 371.1803 503.38264 377.7168 511.83398 C 380.45354 515.37249 385.87205 513.88643 389.42188 516.14062 C 393.23409 518.56146 394.8613 523.3841 398.67188 526.04688 C 407.95412 532.53313 420.59255 534.06097 431.63086 534.15234 C 435.66831 517.31107 454.43493 507.56614 469.63086 502.50586 C 476.04377 500.37036 489.34921 501.37591 491.63086 494.15234 C 503.8245 494.68377 515.148 498.63507 527.63086 496.85156 C 554.594 492.9991 574.83557 470.13808 575.50195 443.15234 C 575.87787 427.92911 560.73244 405.66567 571.84375 393.19141 C 586.10692 377.17867 614.47746 378.66978 632.63086 368.2793 C 666.20191 349.06425 676.63086 300.54846 676.63086 265.15234 C 666.55514 270.17132 658.39164 278.92383 648.63086 284.69922 C 627.02433 297.48363 601.46767 307.97982 583.66992 326.16602 C 567.94993 342.22909 558.68301 363.10032 542.63086 379.15234 L 553.63086 346.15234 C 525.37701 328.14603 539.32835 288.98635 558.64453 269.15234 C 585.27301 241.81005 625.33065 225.23047 663.63086 225.23047 C 683.7676 225.23047 702.77287 232.50219 722.63086 226.15234 L 722.63086 224.15234 C 713.49892 221.0378 701.89984 214.76188 698.63086 205.15234 C 711.88743 198.97023 721.45858 180.83543 724.73242 167.15234 C 725.51758 163.8708 727.98529 148.45379 721.56445 149.18945 z M 617.63086 327.15234 C 614.3819 336.78734 604.95666 353.23456 596.63086 359.15234 C 599.2066 345.87843 606.47377 335.01165 617.63086 327.15234 z M 507.63086 412.15234 C 502.17307 420.43914 497.67451 431.80158 488.63086 436.73438 C 481.36358 440.69823 472.49617 440.11745 464.63086 442.15234 C 470.10514 418.50091 485.04615 412.15234 507.63086 412.15234 z " />
    </g>
  </g>
</svg>
